<svg xmlns="http://www.w3.org/2000/svg" id="svg4" width="160" height="32" version="1.1"><path id="text1" d="M40.05 20.676q-2.094 0-3.65-.887-1.547-.887-2.406-2.51-.849-1.631-.849-3.848 0-2.349.906-3.972t2.453-2.452q1.556-.84 3.471-.84 1.283 0 2.415.359 1.132.358 2 1.037.877.67 1.415 1.604.538.924.632 2.075h-4q-.075-.396-.254-.707-.18-.311-.472-.528-.283-.217-.68-.33-.386-.114-.896-.114-.99 0-1.67.453-.669.443-1.018 1.302-.34.858-.34 2.113 0 1.245.35 2.104.348.858 1.037 1.301.689.444 1.698.444.82 0 1.377-.246.566-.245.85-.679.292-.443.292-1.028l.811.075h-3.358v-2.801h6.377v2.028q0 1.83-.812 3.188-.81 1.359-2.273 2.114-1.453.745-3.405.745m7.83-.227v-9.961h3.66v1.81h.02q.273-1.008.848-1.405.576-.405 1.604-.405h.943v3.018h-1.377q-.585 0-1.019.264-.434.265-.67.755-.235.481-.235 1.151v4.773zm11.094.18q-1 0-1.764-.321-.764-.32-1.198-.972-.434-.65-.434-1.641 0-.84.292-1.415.293-.585.812-.953.528-.377 1.226-.566.698-.198 1.5-.255.877-.056 1.405-.15.538-.104.774-.274t.236-.444v-.037q0-.217-.142-.378-.141-.16-.396-.245-.245-.094-.594-.094-.368 0-.642.104-.264.103-.415.31-.15.199-.188.491h-3.453q.085-1.132.65-1.915.567-.792 1.614-1.198 1.057-.415 2.585-.415 1.15 0 2.028.236.887.227 1.481.68.604.452.906 1.112.301.651.301 1.5v6.66H61.88v-1.396h-.037q-.33.595-.755.944-.424.34-.953.48-.519.152-1.16.152m1.226-2.35q.406 0 .783-.15.387-.16.632-.463.246-.301.246-.745v-.792q-.142.047-.302.094-.151.047-.33.095-.18.037-.397.084l-.48.085q-.388.066-.67.198-.274.132-.425.33-.15.199-.15.453 0 .255.14.444.142.179.387.273t.566.095m10.754-3.112v5.282h-3.773v-9.961h3.726v2.745h-.49q.462-1.302 1.34-2.132.877-.84 2.386-.84 1.113 0 1.858.481.746.472 1.123 1.35.377.877.377 2.075v6.282h-3.773v-5.433q0-.755-.359-1.16-.358-.406-1.028-.406-.443 0-.755.188-.31.19-.471.576-.16.377-.16.953m8.17 5.282v-9.961h3.773v9.961zM81 9.827q-.887 0-1.453-.51-.556-.508-.556-1.31 0-.793.556-1.293.566-.51 1.453-.51t1.443.51q.566.5.566 1.302 0 .793-.566 1.302-.556.51-1.443.51m10.5.66v2.868h-7.51v-2.867zm-5.83-2.716h3.773v9.037q0 .443.17.613.179.16.698.16H91.5v2.868h-2.075q-1.962 0-2.858-.707-.897-.717-.897-2.274zm11.838 12.905q-1.547 0-2.745-.66-1.198-.67-1.877-1.85-.67-1.179-.67-2.697 0-1.529.67-2.698.67-1.18 1.84-1.84 1.179-.67 2.707-.67 1.15 0 2.104.378.952.368 1.65 1.056.699.68 1.076 1.613.387.934.387 2.057v1.01h-9.32V14.26h7.603l-1.736.368q0-.528-.198-.896-.198-.378-.566-.576t-.896-.198q-.52 0-.896.198-.368.198-.566.576-.199.368-.199.896v1.67q0 .547.208.943.217.396.613.604.406.207.962.207.406 0 .727-.104.33-.103.556-.292.227-.198.33-.462h3.34q-.18 1.019-.896 1.802-.717.783-1.812 1.235-1.084.444-2.396.444m8.104-.047q-.812 0-1.387-.576-.575-.575-.575-1.387 0-.81.575-1.386t1.387-.576q.811 0 1.386.576.576.575.576 1.386 0 .812-.576 1.387-.575.576-1.386.576m8.924.047q-1.915 0-3.472-.84-1.547-.84-2.452-2.453-.906-1.622-.906-3.952 0-2.349.906-3.972.905-1.622 2.452-2.452 1.557-.84 3.472-.84 1.349 0 2.48.396 1.133.397 1.982 1.123.858.726 1.386 1.745.538 1.019.68 2.264h-3.953q-.085-.5-.302-.896-.207-.396-.528-.67-.32-.273-.745-.415-.415-.15-.925-.15-.953 0-1.613.452-.65.453-.99 1.32-.34.86-.34 2.095 0 1.226.33 2.085.34.858 1 1.31.66.454 1.613.454.51 0 .925-.142.415-.141.735-.415.321-.283.529-.67.217-.396.311-.886h3.953q-.151 1.245-.68 2.264-.528 1.009-1.386 1.735-.859.727-1.99 1.123-1.123.387-2.472.387m12.754 0q-1.613 0-2.84-.632-1.226-.642-1.915-1.812-.679-1.17-.679-2.763 0-1.595.68-2.755.688-1.17 1.914-1.811 1.227-.642 2.84-.642 1.622 0 2.84.642 1.225.641 1.905 1.811.688 1.16.688 2.755t-.688 2.763q-.68 1.17-1.906 1.812-1.217.632-2.84.632m0-2.943q.452 0 .82-.255t.585-.755q.217-.51.217-1.254 0-.755-.217-1.255t-.585-.755-.82-.255q-.444 0-.821.255-.368.255-.585.755t-.217 1.255q0 .745.217 1.254.217.5.585.755.377.255.82.255m10.603 2.943q-1.302 0-2.274-.642-.962-.65-1.5-1.82-.528-1.18-.528-2.764 0-1.529.547-2.698t1.51-1.83q.962-.66 2.207-.66.651 0 1.16.17.51.16.906.499.406.33.717.858h.009V6.394h3.773v14.055h-3.735v-1.547h-.01q-.226.585-.631.981-.397.397-.944.595t-1.207.198m1.122-2.962q.52 0 .915-.274.397-.283.623-.792t.226-1.198-.226-1.189q-.226-.5-.623-.774-.396-.283-.915-.283-.509 0-.877.283-.358.274-.547.774t-.189 1.189q0 .688.189 1.198t.547.792q.368.274.877.274m11.943 2.962q-1.547 0-2.745-.66-1.198-.67-1.877-1.85-.67-1.179-.67-2.697 0-1.529.67-2.698.67-1.18 1.84-1.84 1.178-.67 2.707-.67 1.15 0 2.103.378.953.368 1.651 1.056.698.68 1.075 1.613.387.934.387 2.057v1.01h-9.32V14.26h7.603l-1.735.368q0-.528-.198-.896-.199-.378-.566-.576-.368-.198-.897-.198-.518 0-.896.198-.368.198-.566.576-.198.368-.198.896v1.67q0 .547.208.943.217.396.613.604.405.207.962.207.406 0 .726-.104.33-.103.557-.292.226-.198.33-.462h3.34q-.18 1.019-.897 1.802t-1.81 1.235q-1.086.444-2.397.444" aria-label="Granite.Code" style="font-size:19.3196px;line-height:1.25;font-family:&quot;Inter Variable&quot;;-inkscape-font-specification:&quot;Inter Variable, @opsz=32,wght=900&quot;;font-variation-settings:&quot;opsz&quot;32,&quot;wght&quot;900;letter-spacing:0;word-spacing:0;stroke-width:3.95178;stroke-linecap:round"/><path id="path1" d="M15.067-.012h2.554l7.297 9.585-9.85-1.643zm0 10.954 8.97 1.35.993-2.194-9.96-1.659zm.002 2.795 3.18 1.483 3.963-.003 3.427 2.042-1.632-4.452-8.94-1.357z" style="stroke-width:.18024"/><path id="path2" d="m7.196 23.857 7.695-9.647 3.248 1.505 3.938-.001 3.562 2.133-3.452 6.586-2.992 1.556h-8.982zm-4.283.361 2.887 1.77h3.536l-2.581-1.786zm9.928-11.565c.004.14-.021.276-.058.409-.142.518-.338 1.012-.683 1.433-.25.305-.521.587-.879.768-.589.298-1.094.006-1.284-.447-.11-.264-.057-.532.037-.79.109-.297.291-.55.495-.788.324-.38.704-.693 1.159-.908.189-.09.382-.168.59-.204.399-.07.624.12.623.527m-6.863-.105c-.003.447-.1.878-.4 1.238-.34.412-.78.625-1.319.588-.292-.02-.483-.202-.583-.466-.142-.371-.138-.757-.058-1.14a3.6 3.6 0 0 1 .649-1.437c.105-.142.233-.268.395-.347.28-.137.561-.057.812.208.359.378.507.832.504 1.356m6.074-2.895c-.001.537-.17 1.03-.422 1.494-.225.416-.509.787-.89 1.074-.273.205-.57.318-.919.246a.795.795 0 0 1-.655-.732c-.038-.419.093-.795.301-1.144a4.7 4.7 0 0 1 1.53-1.587c.15-.096.31-.17.494-.172a.49.49 0 0 1 .499.346c.057.154.069.313.062.475m-3.11.149c-.017.516-.105 1.05-.436 1.514-.24.336-.535.601-.948.697-.275.064-.55.064-.794-.113-.227-.167-.301-.416-.312-.677-.044-1.073.378-1.952 1.15-2.675a.9.9 0 0 1 .539-.258.5.5 0 0 1 .496.228c.157.23.221.497.266.768.027.158.04.318.04.516m-.946 8.318c-.398-.02-.77-.11-1.1-.353-.336-.248-.717-.3-1.119-.214-.182.039-.361.091-.544.128-.509.103-.862-.239-.993-.59-.127-.34-.056-.67.078-.993.185-.445.492-.81.788-1.181a4.5 4.5 0 0 1 1.473-1.22c.4-.203.82-.344 1.272-.343.77.004 1.317.42 1.574 1.122.163.446.157.901.075 1.358-.086.471-.192.939-.385 1.38-.11.251-.26.48-.466.666a.9.9 0 0 1-.653.24m6.55-18.132h-2.732l-4.21 6.107-2.068.316L.07 17.248l2.345 6.465 4.258-.013 7.894-9.89z" style="stroke-width:.18024"/><path id="path3" d="M192.565 262.8q-3.945 0-6.926-1.703-2.982-1.722-4.649-4.89-1.667-3.166-1.667-7.518 0-4.52 1.76-7.686 1.76-3.186 4.74-4.852 2.983-1.686 6.668-1.686 3.167 0 5.741 1.204 2.575 1.185 4.204 3.315 1.649 2.111 1.982 4.852h-6.612q-.463-1.722-1.815-2.666-1.333-.964-3.389-.964-3.019 0-4.815 2.204-1.778 2.186-1.778 6.186 0 4.037 1.741 6.26 1.74 2.204 4.87 2.204 2.742 0 4.223-1.315 1.5-1.315 1.556-3.556h-5.519v-4.797h11.834v3.63q0 3.686-1.574 6.334-1.556 2.63-4.296 4.037t-6.279 1.408zm15.909-.37v-20.705h6.278v3.778h.222q.556-2.037 1.834-3.037 1.296-1 3-1 .945 0 1.834.222v5.63q-.463-.167-1.223-.24-.74-.093-1.333-.093-1.796 0-2.982 1.148-1.167 1.148-1.167 3v11.298zm20.983.37q-2.982 0-4.908-1.518-1.907-1.518-1.907-4.593 0-2.296 1.055-3.648 1.056-1.352 2.797-2 1.76-.648 3.852-.834 2.63-.222 3.76-.537 1.148-.333 1.148-1.296v-.074q0-1.074-.76-1.649-.74-.592-2.055-.592-1.352 0-2.222.574-.871.574-1.13 1.556l-5.853-.76q.612-2.648 2.982-4.296 2.39-1.667 6.278-1.667 2.575 0 4.649.796 2.093.797 3.315 2.352 1.24 1.537 1.24 3.76v14.057h-6.074v-2.908h-.166q-1.723 3.278-6 3.278zm1.963-4.277q1.63 0 2.76-.963t1.13-2.5v-1.982q-.556.296-1.612.5-1.055.204-1.963.352-2.982.444-2.982 2.463 0 1.037.741 1.593.76.537 1.926.537m21.02-7.908v11.816h-6.463v-20.706h6.075l.11 4.463q.816-2.148 2.39-3.426 1.574-1.296 4.093-1.296 3.24 0 5.204 2.13t1.963 5.648v13.187h-6.463v-11.927q0-1.741-.89-2.723-.888-1-2.481-1-1.574 0-2.556 1.019-.981 1-.981 2.815zm17.632 11.816v-20.706h6.463v20.706zm3.222-23.132q-1.37 0-2.352-.907-.981-.908-.981-2.204t.981-2.204q.982-.908 2.352-.908 1.39 0 2.37.908.982.907.982 2.204 0 1.296-.981 2.204-.982.907-2.37.907zm18.687 2.426v4.797h-3.723v9.575q0 1.61 1.649 1.61.333 0 .926-.073.61-.093.87-.148l.833 4.704q-1.092.315-2.11.426-1.02.11-1.927.11-3.296 0-5-1.536-1.704-1.556-1.704-4.52v-10.148h-2.741v-4.797h2.74V236.8h6.464v4.926zm12.594 21.094q-4.871 0-7.668-2.833-2.778-2.852-2.778-7.834 0-3.186 1.241-5.593 1.26-2.408 3.556-3.741 2.296-1.352 5.408-1.352 2.907 0 5.148 1.222 2.26 1.204 3.538 3.575 1.296 2.352 1.296 5.76v1.629h-13.834q.092 2.241 1.222 3.37 1.148 1.112 2.982 1.112 1.296 0 2.24-.537.945-.556 1.334-1.593l5.76.945q-.778 2.685-3.241 4.278-2.445 1.592-6.204 1.592m-4.056-12.927h7.667q-.185-1.759-1.148-2.74-.963-1-2.649-1-1.704 0-2.704 1.018-.981 1-1.166 2.722m21.742 12.927q-1.481 0-2.5-.981-1-1-1-2.463 0-1.482 1-2.463 1.019-1 2.5-1t2.482 1q1.018.981 1.018 2.463 0 1.463-1.018 2.463-1 .981-2.482.981m18.428 0q-3.241 0-5.575-1.333-2.333-1.352-3.593-3.741-1.24-2.408-1.24-5.593t1.24-5.593q1.26-2.408 3.593-3.741 2.334-1.352 5.575-1.352 3.963 0 6.5 1.981 2.556 1.982 3.037 5.371l-5.963 1q-.315-1.63-1.204-2.518-.87-.89-2.296-.89-1.852 0-2.87 1.52-1.02 1.5-1.02 4.185 0 2.667 1.02 4.222 1.018 1.538 2.87 1.538 1.426 0 2.315-.926.907-.926 1.204-2.593l5.963.963q-.482 3.482-3.019 5.5-2.537 2-6.537 2m22.576 0q-3.241 0-5.575-1.333-2.333-1.352-3.593-3.741-1.24-2.408-1.24-5.593t1.24-5.593q1.26-2.408 3.593-3.741 2.334-1.352 5.575-1.352t5.556 1.352q2.333 1.333 3.574 3.74 1.26 2.408 1.26 5.594 0 3.185-1.26 5.593-1.24 2.39-3.574 3.741-2.315 1.333-5.556 1.333m0-4.944q1.852 0 2.833-1.575.982-1.592.982-4.185t-.982-4.149q-.981-1.555-2.833-1.555t-2.834 1.555q-.982 1.556-.982 4.149t.982 4.185q.982 1.575 2.834 1.575m21.372 4.852q-2.297 0-4.186-1.185-1.889-1.204-3-3.556-1.111-2.37-1.111-5.89 0-3.63 1.148-5.982 1.167-2.352 3.037-3.5 1.89-1.148 4.056-1.148 1.648 0 2.815.574 1.167.556 1.908 1.445.76.87 1.148 1.796h.148v-10.445h6.445v27.595h-6.37v-3.353h-.223q-.611 1.408-2.037 2.538-1.408 1.11-3.778 1.11zm2.204-5.038q1.833 0 2.87-1.518 1.037-1.537 1.037-4.075 0-2.574-1.037-4.074-1.018-1.5-2.87-1.5-1.87 0-2.871 1.537-.982 1.519-.982 4.037 0 2.52.982 4.056 1 1.537 2.87 1.537zm24.131 5.13q-4.87 0-7.667-2.833-2.778-2.852-2.778-7.834 0-3.186 1.24-5.593 1.26-2.408 3.557-3.741 2.296-1.352 5.407-1.352 2.908 0 5.149 1.222 2.26 1.204 3.537 3.575 1.297 2.352 1.297 5.76v1.629h-13.835q.093 2.241 1.223 3.37 1.148 1.112 2.981 1.112 1.297 0 2.241-.537.945-.556 1.334-1.593l5.76.945q-.778 2.685-3.242 4.278-2.444 1.592-6.204 1.592m-4.056-12.927h7.668q-.186-1.759-1.149-2.74-.963-1-2.648-1-1.704 0-2.704 1.018-.981 1-1.167 2.722" aria-label="Granite.code" style="font-weight:800;font-size:10.0354px;line-height:1.25;font-family:Inter;-inkscape-font-specification:&quot;Inter, Ultra-Bold&quot;;text-align:center;letter-spacing:0;word-spacing:0;text-anchor:middle;stroke-width:5.17213"/><style id="style4">path{fill:#000}@media (prefers-color-scheme:dark){path{fill:#fff}}</style></svg>